<svg xmlns="http://www.w3.org/2000/svg" viewBox="0 0 1166.39 1016.23"><defs><style>.cls-1{fill:#ea580c;}</style></defs><g id="Layer_2" data-name="Layer 2"><g id="Layer_2-2" data-name="Layer 2"><path class="cls-1" d="M603.11,11.5a23,23,0,0,0-39.83,0L477.86,159.44l-105,181.86L283.2,496.62,213.12,618A23,23,0,0,0,233,652.5H389.91A23,23,0,0,0,409.83,641l30.86-53.45,37.17-64.38,105-181.87.34-.57L725.7,587.55,848.28,799.87a23,23,0,0,1-19.92,34.5H101.48a23,23,0,0,0-19.92,11.5L3.12,981.73A23,23,0,0,0,23,1016.23H1143.36a23,23,0,0,0,19.92-34.5Z"/></g></g></svg>